# File created by Blade
# Date/Time:  Wed Apr 08 17:20:14 2015
#---------------------------------------------------------
:version 1.10
:name HOM
:units
  mass 1.0
  length 1.000000
  angle deg
:documentation
     Acclaim Skeleton File
:root
   axis xyz
   order TX TY TZ RX RY RZ
   position 0.000000 0.000000 0.000000
   orientation 0 0 0
:bonedata
   begin
      id 1
      name Spine_dum
      direction 0.000000 1.000000 0.000000
      length 5.893853
      axis 0.0 0.0 0.0 xyz
   end
   begin
      id 2
      name LeftUpLeg_dum
      direction 1.000000 0.000000 0.000000
      length 3.697939
      axis 0.0 0.0 0.0 xyz
   end
   begin
      id 3
      name RightUpLeg_dum
      direction -1.000000 0.000000 0.000000
      length 3.697939
      axis 0.0 0.0 0.0 xyz
   end
   begin
      id 4
      name Spine
      direction 0.000000 1.000000 0.000000
      length 0.000000
      axis 0.0 0.0 0.0 xyz
      dof rx ry rz
   end
   begin
      id 5
      name Spine_dum1
      direction 0.000000 1.000000 0.000000
      length 16.447146
      axis 0.0 0.0 0.0 xyz
   end
   begin
      id 6
      name Spine_dum2
      direction 0.000000 1.000000 0.000000
      length 10.900383
      axis 0.0 0.0 0.0 xyz
   end
   begin
      id 7
      name Spine_dum3
      direction 0.000000 1.000000 0.000000
      length 10.900383
      axis 0.0 0.0 0.0 xyz
   end
   begin
      id 8
      name Head
      direction 0.000000 1.000000 0.000000
      length 4.527550
      axis 0.0 0.0 0.0 xyz
      dof rx ry rz
   end
   begin
      id 9
      name LeftShoulder
      direction 1.000000 0.000000 0.000000
      length 8.219464
      axis 0.0 0.0 -90.0 xyz
      dof rx ry rz
   end
   begin
      id 10
      name LeftArm
      direction 1.000000 0.000000 0.000000
      length 11.094937
      axis 0.0 0.0 -90.0 xyz
      dof rx ry rz
   end
   begin
      id 11
      name LeftForeArm
      direction 1.000000 0.000000 0.000000
      length 9.103875
      axis 0.0 0.0 -90.0 xyz
      dof ry rz rx
   end
   begin
      id 12
      name LeftHand
      direction 0.000000 0.000000 0.000000
      length 0.000000
      axis 0.0 0.0 -90.0 xyz
      dof rx ry rz
   end
   begin
      id 13
      name LeftHand_dum1
      direction 0.000000 0.000000 0.000000
      length 0.000000
      axis 0.0 0.0 -90.0 xyz
   end
   begin
      id 14
      name LeftHand_dum2
      direction 1.000000 0.000000 0.000000
      length 3.937000
      axis 0.0 0.0 -90.0 xyz
   end
   begin
      id 15
      name LeftHandThumb1
      direction 0.000000 0.000000 1.000000
      length 3.937000
      axis 0.0 0.0 -90.0 xyz
      dof rx rz ry
   end
   begin
      id 16
      name RightShoulder
      direction -1.000000 0.000000 0.000000
      length 8.219464
      axis 0.0 0.0 90.0 xyz
      dof rx ry rz
   end
   begin
      id 17
      name RightArm
      direction -1.000000 0.000000 0.000000
      length 11.094937
      axis 0.0 0.0 90.0 xyz
      dof rx ry rz
   end
   begin
      id 18
      name RightForeArm
      direction -1.000000 0.000000 0.000000
      length 9.103875
      axis 0.0 0.0 90.0 xyz
      dof ry rz rx
   end
   begin
      id 19
      name RightHand
      direction 0.000000 0.000000 0.000000
      length 0.000000
      axis 0.0 0.0 90.0 xyz
      dof rx ry rz
   end
   begin
      id 20
      name RightHand_dum1
      direction 0.000000 0.000000 0.000000
      length 0.000000
      axis 0.0 0.0 90.0 xyz
   end
   begin
      id 21
      name RightHand_dum2
      direction -1.000000 0.000000 0.000000
      length 3.937000
      axis 0.0 0.0 90.0 xyz
   end
   begin
      id 22
      name RightHandThumb1
      direction 0.000000 0.000000 1.000000
      length 3.937000
      axis 0.0 0.0 90.0 xyz
      dof rx rz ry
   end
   begin
      id 23
      name LeftUpLeg
      direction 0.000000 -1.000000 0.000000
      length 16.181467
      axis 0.0 0.0 0.0 xyz
      dof rx ry rz
   end
   begin
      id 24
      name LeftLeg
      direction 0.000000 -1.000000 0.000000
      length 16.501392
      axis 0.0 0.0 0.0 xyz
      dof rx ry rz
   end
   begin
      id 25
      name LeftFoot
      direction 0.000000 -0.258819 0.965926
      length 6.408245
      axis 15.0 0.0 0.0 xyz
      dof rx ry rz
   end
   begin
      id 26
      name LeftToeBase
      direction 0.000000 0.000000 1.000000
      length 2.952750
      axis 0.0 0.0 0.0 xyz
      dof rx ry rz
   end
   begin
      id 27
      name RightUpLeg
      direction 0.000000 -1.000000 0.000000
      length 16.181467
      axis 0.0 0.0 0.0 xyz
      dof rx ry rz
   end
   begin
      id 28
      name RightLeg
      direction 0.000000 -1.000000 0.000000
      length 16.501392
      axis 0.0 0.0 0.0 xyz
      dof rx ry rz
   end
   begin
      id 29
      name RightFoot
      direction 0.000000 -0.258819 0.965926
      length 6.408245
      axis 15.0 0.0 0.0 xyz
      dof rx ry rz
   end
   begin
      id 30
      name RightToeBase
      direction 0.000000 0.000000 1.000000
      length 2.952750
      axis 0.0 0.0 0.0 xyz
      dof rx ry rz
   end
:hierarchy
   begin
      root Spine_dum LeftUpLeg_dum RightUpLeg_dum
      Spine_dum Spine
      LeftUpLeg_dum LeftUpLeg
      RightUpLeg_dum RightUpLeg
      Spine Spine_dum1 Spine_dum2 Spine_dum3
      Spine_dum1 Head
      Spine_dum2 LeftShoulder
      Spine_dum3 RightShoulder
      LeftShoulder LeftArm
      LeftArm LeftForeArm
      LeftForeArm LeftHand
      LeftHand LeftHand_dum1 LeftHand_dum2
      LeftHand_dum1 LeftHandThumb1
      RightShoulder RightArm
      RightArm RightForeArm
      RightForeArm RightHand
      RightHand RightHand_dum1 RightHand_dum2
      RightHand_dum1 RightHandThumb1
      LeftUpLeg LeftLeg
      LeftLeg LeftFoot
      LeftFoot LeftToeBase
      RightUpLeg RightLeg
      RightLeg RightFoot
      RightFoot RightToeBase
   end

# File created by Blade
# Date/Time:  Wed Apr 08 17:19:54 2015
# Frame Rate: 120.000 fps
#------------------------------------------------------
:FULLY-SPECIFIED
:DEGREES
372
root 5.433168 36.500051 0.034888 15.898241 -63.192258 -23.066198
Spine 10.801868 1.539554 5.610660
Head 19.716911 31.279177 12.095703
LeftShoulder -6.933771 16.956486 15.138346
LeftArm 17.645941 7.611601 -72.756240
LeftForeArm 17.455553 0.000000 17.635155
LeftHand -11.832555 0.000000 -11.885166
LeftHandThumb1 -26.253704 0.000000 33.147579
RightShoulder -30.794247 -48.679795 23.507948
RightArm 56.868815 -17.147925 54.296264
RightForeArm 26.650852 -0.000000 3.504377
RightHand -6.211411 -0.000000 18.138861
RightHandThumb1 -24.326973 -0.000000 -32.862282
LeftUpLeg 7.912344 7.401049 5.019526
LeftLeg 9.016932 -0.000000 -0.000000
LeftFoot -15.391101 9.139818 -2.634667
LeftToeBase 5.700021 -0.000000 -0.000000
RightUpLeg -25.940849 9.205202 -12.352755
RightLeg 152.232061 -0.000000 -0.000000
RightFoot 0.162934 14.173959 3.714442
RightToeBase -1.587484 -0.000000 0.000000
373
root 5.441073 36.489380 0.050188 15.543717 -63.145201 -22.710042
Spine 10.845490 1.643370 5.709141
Head 19.556542 31.341529 12.053643
LeftShoulder -6.888907 16.912876 15.211952
LeftArm 17.779538 7.290306 -72.762055
LeftForeArm 17.261360 -0.000000 17.678786
LeftHand -11.840031 -0.000000 -11.649832
LeftHandThumb1 -26.253704 0.000000 33.147579
RightShoulder -30.778906 -48.706003 23.537727
RightArm 56.982461 -17.149058 54.125887
RightForeArm 26.786154 -0.000000 3.369245
RightHand -6.142496 0.000000 18.112333
RightHandThumb1 -24.326973 -0.000000 -32.862282
LeftUpLeg 7.928574 7.187819 4.814437
LeftLeg 9.015765 -0.000000 -0.000000
LeftFoot -15.393558 9.291183 -2.598408
LeftToeBase 5.742650 -0.000000 -0.000000
RightUpLeg -25.981257 9.249211 -12.273294
RightLeg 152.194444 -0.000000 -0.000000
RightFoot 0.014661 14.109907 3.146646
RightToeBase -2.070247 -0.000000 0.000000
374
root 5.450144 36.478496 0.062944 15.151602 -63.094336 -22.337214
Spine 10.923040 1.740976 5.782306
Head 19.392946 31.430283 12.041949
LeftShoulder -6.844402 16.770526 15.331121
LeftArm 17.792854 6.890250 -72.861475
LeftForeArm 17.054245 -0.000000 17.784792
LeftHand -11.850676 -0.000000 -11.495061
LeftHandThumb1 -26.253704 0.000000 33.147579
RightShoulder -30.725187 -48.733156 23.549988
RightArm 57.105822 -17.147456 53.961101
RightForeArm 26.939662 -0.000000 3.244162
RightHand -6.216504 0.000000 17.912148
RightHandThumb1 -24.326973 -0.000000 -32.862282
LeftUpLeg 7.977280 6.945273 4.606333
LeftLeg 8.990081 -0.000000 -0.000000
LeftFoot -15.402143 9.439052 -2.592317
LeftToeBase 5.844267 -0.000000 -0.000000
RightUpLeg -26.055736 9.369897 -12.223391
RightLeg 152.164788 -0.000000 -0.000000
RightFoot -0.166442 13.867968 3.405667
RightToeBase -1.679139 -0.000000 0.000000
375
root 5.459957 36.466347 0.076259 14.781505 -63.085079 -21.985674
Spine 10.992427 1.931820 5.860208
Head 19.232841 31.464572 11.997638
LeftShoulder -6.789082 16.619175 15.460669
LeftArm 17.823135 6.580536 -72.954173
LeftForeArm 16.788434 -0.000000 17.913116
LeftHand -11.900980 -0.000000 -11.289783
LeftHandThumb1 -26.253704 0.000000 33.147579
RightShoulder -30.714039 -48.759166 23.573868
RightArm 57.202908 -17.097024 53.910572
RightForeArm 26.884275 -0.000000 3.099969
RightHand -6.118136 -0.000000 17.904615
RightHandThumb1 -24.326973 -0.000000 -32.862282
LeftUpLeg 8.032679 6.730273 4.388414
LeftLeg 8.959291 -0.000000 -0.000000
LeftFoot -15.398422 9.620391 -2.582112
LeftToeBase 5.836388 -0.000000 -0.000000
RightUpLeg -26.159678 9.555514 -12.180207
RightLeg 152.104562 -0.000000 -0.000000
RightFoot -0.282551 13.649736 3.435491
RightToeBase -1.619367 -0.000000 0.000000
376
root 5.468734 36.454965 0.088956 14.450945 -63.031980 -21.625085
Spine 10.987456 2.081098 5.943301
Head 19.145574 31.523731 11.998556
LeftShoulder -6.750779 16.483470 15.579691
LeftArm 17.839786 6.288493 -73.056924
LeftForeArm 16.592603 -0.000000 18.051914
LeftHand -11.914569 -0.000000 -11.061075
LeftHandThumb1 -26.253704 0.000000 33.147579
RightShoulder -30.714348 -48.774921 23.617452
RightArm 57.271516 -17.059783 53.829132
RightForeArm 26.837103 0.000000 3.015210
RightHand -6.064373 -0.000000 17.724129
RightHandThumb1 -24.326973 -0.000000 -32.862282
LeftUpLeg 8.024145 6.458655 4.165021
LeftLeg 8.947833 -0.000000 -0.000000
LeftFoot -15.416616 9.833492 -2.536117
LeftToeBase 5.901329 -0.000000 -0.000000
RightUpLeg -26.307021 9.700013 -12.109411
RightLeg 152.040228 -0.000000 -0.000000
RightFoot -0.424373 13.361970 3.382829
RightToeBase -2.198237 -0.000000 0.000000
377
root 5.475672 36.443136 0.100048 14.103355 -62.956199 -21.236032
Spine 10.971244 2.230393 6.007401
Head 19.047676 31.566518 11.976533
LeftShoulder -6.734462 16.349905 15.686042
LeftArm 17.869051 5.970805 -73.157295
LeftForeArm 16.524111 -0.000000 18.245810
LeftHand -11.870982 0.000000 -10.947092
LeftHandThumb1 -26.253704 0.000000 33.147579
RightShoulder -30.794678 -48.755907 23.724864
RightArm 57.340327 -17.023453 53.747393
RightForeArm 26.792357 -0.000000 2.946532
RightHand -6.015212 0.000000 17.578568
RightHandThumb1 -24.326973 -0.000000 -32.862282
LeftUpLeg 8.002122 6.128938 3.924346
LeftLeg 8.939447 -0.000000 -0.000000
LeftFoot -15.425313 10.110778 -2.461691
LeftToeBase 5.969813 -0.000000 -0.000000
RightUpLeg -26.478448 9.829313 -11.994655
RightLeg 152.017356 -0.000000 -0.000000
RightFoot -0.400758 13.139736 2.946616
RightToeBase -3.066201 -0.000000 0.000000
378
root 5.482394 36.431810 0.106853 13.832496 -62.885456 -20.899003
Spine 10.913022 2.376197 6.081890
Head 18.988497 31.654696 11.958664
LeftShoulder -6.735561 16.258890 15.780319
LeftArm 17.900215 5.733767 -73.228741
LeftForeArm 16.424688 -0.000000 18.502384
LeftHand -11.931346 -0.000000 -10.804978
LeftHandThumb1 -26.253704 0.000000 33.147579
RightShoulder -30.823565 -48.739508 23.802098
RightArm 57.369999 -16.938942 53.735988
RightForeArm 26.493673 0.000000 2.921310
RightHand -6.002979 0.000000 17.376333
RightHandThumb1 -24.326973 -0.000000 -32.862282
LeftUpLeg 7.940625 5.870880 3.715533
LeftLeg 8.943919 -0.000000 -0.000000
LeftFoot -15.423594 10.371857 -2.338001
LeftToeBase 5.919739 -0.000000 -0.000000
RightUpLeg -26.728157 10.063289 -11.841730
RightLeg 152.000077 -0.000000 -0.000000
RightFoot -0.370093 12.971859 2.791147
RightToeBase -3.442866 -0.000000 0.000000
379
root 5.488413 36.420036 0.112260 13.554257 -62.811754 -20.539071
Spine 10.838422 2.528894 6.124588
Head 18.925335 31.754117 11.979079
LeftShoulder -6.723741 16.200605 15.878134
LeftArm 17.921369 5.405159 -73.331174
LeftForeArm 16.476452 -0.000000 18.823605
LeftHand -11.911742 0.000000 -10.788083
LeftHandThumb1 -26.253704 0.000000 33.147579
RightShoulder -30.921127 -48.717383 23.971340
RightArm 57.474359 -16.884448 53.569524
RightForeArm 26.255403 0.000000 2.890568
RightHand -5.934958 -0.000000 17.257711
RightHandThumb1 -24.326973 -0.000000 -32.862282
LeftUpLeg 7.874532 5.681207 3.504500
LeftLeg 8.928569 -0.000000 -0.000000
LeftFoot -15.390698 10.615452 -2.089395
LeftToeBase 5.897731 -0.000000 -0.000000
RightUpLeg -27.034186 10.387210 -11.704935
RightLeg 151.947646 -0.000000 -0.000000
RightFoot 0.024609 12.870696 3.457965
RightToeBase -3.879080 -0.000000 0.000000
380
root 5.496918 36.407413 0.120488 13.248545 -62.742918 -20.154699
Spine 10.777869 2.659116 6.167109
Head 18.845568 31.888749 11.953836
LeftShoulder -6.718879 16.147926 15.939626
LeftArm 17.914294 5.088530 -73.420872
LeftForeArm 16.564471 -0.000000 19.200324
LeftHand -11.871420 -0.000000 -10.856696
LeftHandThumb1 -26.253704 0.000000 33.147579
RightShoulder -30.968421 -48.672374 24.088951
RightArm 57.569381 -16.839124 53.392397
RightForeArm 26.029218 -0.000000 2.900563
RightHand -5.903925 0.000000 17.116071
RightHandThumb1 -24.326973 -0.000000 -32.862282
LeftUpLeg 7.783361 5.392082 3.260380
LeftLeg 8.978273 -0.000000 -0.000000
LeftFoot -15.391829 10.900002 -1.963914
LeftToeBase 5.833188 -0.000000 -0.000000
RightUpLeg -27.351342 10.652733 -11.524580
RightLeg 151.959140 -0.000000 -0.000000
RightFoot 0.699828 12.887315 2.746781
RightToeBase -5.875488 -0.000000 0.000000
381
root 5.504525 36.392767 0.130435 12.846523 -62.653799 -19.698737
Spine 10.747375 2.736408 6.189910
Head 18.771635 32.029029 11.861320
LeftShoulder -6.716350 16.155747 15.960752
LeftArm 17.942975 4.874712 -73.428768
LeftForeArm 16.475148 -0.000000 19.602223
LeftHand -11.865433 -0.000000 -10.796267
LeftHandThumb1 -26.253704 0.000000 33.147579
RightShoulder -30.926226 -48.603455 24.073446
RightArm 57.608000 -16.782765 53.377990
RightForeArm 25.551673 -0.000000 2.872081
RightHand -5.816051 -0.000000 16.953213
RightHandThumb1 -24.326973 -0.000000 -32.862282
LeftUpLeg 7.710244 5.060836 2.988099
LeftLeg 9.054794 -0.000000 -0.000000
LeftFoot -15.405674 11.175841 -1.855995
LeftToeBase 5.803949 -0.000000 -0.000000
RightUpLeg -27.644319 11.021363 -11.408467
RightLeg 151.965232 -0.000000 -0.000000
RightFoot 1.331007 13.011147 3.112717
RightToeBase -4.892203 -0.000000 0.000000
382
root 5.510164 36.377968 0.139504 12.431848 -62.545595 -19.256440
Spine 10.735232 2.775170 6.224872
Head 18.735771 32.175523 11.754833
LeftShoulder -6.715002 16.217761 15.945164
LeftArm 17.994223 4.623185 -73.407453
LeftForeArm 16.452180 -0.000000 20.028251
LeftHand -11.766719 0.000000 -10.956004
LeftHandThumb1 -26.253704 0.000000 33.147579
RightShoulder -30.740042 -48.516017 23.894485
RightArm 57.524163 -16.601114 53.725656
RightForeArm 24.723048 -0.000000 2.832115
RightHand -5.759050 0.000000 17.021933
RightHandThumb1 -24.326973 -0.000000 -32.862282
LeftUpLeg 7.652565 4.743585 2.740589
LeftLeg 9.154610 -0.000000 -0.000000
LeftFoot -15.421044 11.404517 -1.751893
LeftToeBase 5.751487 -0.000000 -0.000000
RightUpLeg -27.914369 11.420526 -11.242835
RightLeg 151.977944 -0.000000 -0.000000
RightFoot 2.052236 13.270403 3.638949
RightToeBase -3.374104 -0.000000 0.000000
383
root 5.516930 36.361872 0.147618 11.984213 -62.411726 -18.770270
Spine 10.714786 2.778436 6.234916
Head 18.715679 32.347072 11.667901
LeftShoulder -6.706800 16.238621 15.946935
LeftArm 18.029417 4.451960 -73.378987
LeftForeArm 16.369795 -0.000000 20.376451
LeftHand -11.722554 -0.000000 -10.992440
LeftHandThumb1 -26.253704 0.000000 33.147579
RightShoulder -30.611347 -48.461360 23.777594
RightArm 57.584822 -16.619174 53.688384
RightForeArm 24.240710 -0.000000 2.865881
RightHand -5.773244 -0.000000 17.089859
RightHandThumb1 -24.326973 -0.000000 -32.862282
LeftUpLeg 7.554783 4.439853 2.489372
LeftLeg 9.304766 -0.000000 -0.000000
LeftFoot -15.439835 11.575104 -1.635724
LeftToeBase 5.638367 -0.000000 -0.000000
RightUpLeg -28.199472 11.780205 -11.036985
RightLeg 152.048635 -0.000000 -0.000000
RightFoot 2.743786 13.511204 4.024721
RightToeBase -2.187995 -0.000000 0.000000
384
root 5.520230 36.346645 0.156192 11.524167 -62.245178 -18.291572
Spine 10.695631 2.747354 6.246597
Head 18.714829 32.496314 11.589114
LeftShoulder -6.743353 16.301513 15.924771
LeftArm 18.170008 4.268587 -73.342974
LeftForeArm 16.304392 0.000000 20.617898
LeftHand -11.613840 -0.000000 -11.122112
LeftHandThumb1 -26.253704 0.000000 33.147579
RightShoulder -30.482491 -48.429071 23.664654
RightArm 57.698011 -16.710666 53.547123
RightForeArm 23.867464 0.000000 2.980369
RightHand -6.009060 0.000000 16.951245
RightHandThumb1 -24.326973 -0.000000 -32.862282
LeftUpLeg 7.459185 4.204017 2.275726
LeftLeg 9.496745 -0.000000 -0.000000
LeftFoot -15.473683 11.631037 -1.543462
LeftToeBase 5.556229 -0.000000 -0.000000
RightUpLeg -28.458454 12.185206 -10.788812
RightLeg 152.094374 -0.000000 -0.000000
RightFoot 3.358958 13.720996 5.020047
RightToeBase -0.254190 -0.000000 0.000000
